<?xml version="1.0" encoding="UTF-8"?>
<svg version="1.1" xmlns="http://www.w3.org/2000/svg" width="360" height="360">
<path d="M0 0 C118.8 0 237.6 0 360 0 C360 118.8 360 237.6 360 360 C241.2 360 122.4 360 0 360 C0 241.2 0 122.4 0 0 Z " fill="#FEFEFE" transform="translate(0,0)"/>
<path d="M0 0 C0.99 0.66 1.98 1.32 3 2 C3 2.66 3 3.32 3 4 C3.66 4 4.32 4 5 4 C5 5.32 5 6.64 5 8 C5.99 7.67 6.98 7.34 8 7 C8.495 7.99 8.495 7.99 9 9 C8.01 9.66 7.02 10.32 6 11 C6.9075 10.9175 7.815 10.835 8.75 10.75 C12 11 12 11 14.3125 12.875 C16 15 16 15 17 17 C18.98 17 20.96 17 23 17 C22.98839844 17.66386719 22.97679687 18.32773438 22.96484375 19.01171875 C22.87813728 24.47994487 22.87813728 24.47994487 23.625 29.875 C24.09759775 32.55305393 23.42230331 33.74104768 22 36 C21.34 36 20.68 36 20 36 C20.680625 36.680625 21.36125 37.36125 22.0625 38.0625 C22.52011719 38.52914062 22.97773438 38.99578125 23.44921875 39.4765625 C24.98064822 41.01742633 24.98064822 41.01742633 26.64453125 42.3984375 C33.85572621 48.81200593 39.5667285 59.38427743 40.203125 69.1015625 C40.36788869 81.4862999 37.86225302 89.73421666 31 100 C30.4225 100.886875 29.845 101.77375 29.25 102.6875 C21.03488496 111.13081268 11.156322 116.01150631 -0.62060547 116.24194336 C-14.88849107 116.29755879 -24.16643105 112.43487482 -34.8125 102.6875 C-43.89427013 93.15592522 -45.59275683 80.97004263 -45.3125 68.390625 C-45.03727483 62.98245035 -43.72490042 58.68210444 -41 54 C-40.55269531 53.21238281 -40.10539062 52.42476562 -39.64453125 51.61328125 C-36.68667272 46.8156823 -33.10265822 41.67947806 -28 39 C-24.6260229 39.26913047 -23.01257438 40.64565918 -20.75 43.0625 C-19.96882813 43.88427734 -19.96882813 43.88427734 -19.171875 44.72265625 C-18.78515625 45.14417969 -18.3984375 45.56570312 -18 46 C-19.13957867 49.418736 -20.04429724 50.02532307 -22.8125 52.1875 C-29.07286138 57.4942221 -31.49098183 63.49259029 -32.23828125 71.578125 C-32.42625123 78.34504439 -31.38563008 83.13897482 -28 89 C-27.45666016 89.9590625 -27.45666016 89.9590625 -26.90234375 90.9375 C-23.1527242 96.83520668 -18.04005879 99.81775492 -11.625 102.3125 C-1.23863075 104.28232865 6.90050078 102.44056227 15.8125 96.75 C21.30993959 92.53616069 24.15014636 86.54375538 26 80 C26.99899149 70.84645008 26.19716898 62.40229671 20.421875 54.96875 C13.86295151 47.9962007 7.35689965 45.43083375 -2 44 C-1.319375 45.4540625 -1.319375 45.4540625 -0.625 46.9375 C4.39725381 58.83857538 4.47535527 72.1420211 0.1875 84.3046875 C-2.11976786 89.8613576 -4.91003179 95.5428526 -9 100 C-11.9375 100.875 -11.9375 100.875 -15 100 C-17.49793336 98.51637897 -19.76418517 96.8521543 -22 95 C-21.61328125 94.443125 -21.2265625 93.88625 -20.828125 93.3125 C-12.83859607 81.60507147 -8.88568933 71.93331279 -11.4609375 57.3984375 C-13.35267239 51.10007311 -16.85474362 44.34352436 -22.19140625 40.3671875 C-22.78824219 39.91601562 -23.38507813 39.46484375 -24 39 C-24 38.34 -24 37.68 -24 37 C-25.0828125 36.57074219 -25.0828125 36.57074219 -26.1875 36.1328125 C-27.94791138 35.42375792 -29.69980173 34.69271527 -31.4375 33.9296875 C-41.52495958 29.77783676 -51.28893745 29.45643902 -61.43359375 33.6796875 C-69.39626125 37.77615875 -74.72215748 43.17099976 -79 51 C-79.3403125 51.60199219 -79.680625 52.20398438 -80.03125 52.82421875 C-83.50914133 60.24694052 -83.19620082 69.60881834 -81.0859375 77.35546875 C-76.67042697 88.59365522 -70.6792971 95.46348377 -60.01953125 101.03515625 C-55.5125428 102.90943578 -51.67753844 103.02010418 -46.81030273 102.79150391 C-39.86281561 102.47004963 -35.6186541 102.37900428 -29.9375 107 C-28.58674678 108.29456548 -27.25807196 109.61519352 -26 111 C-31.33074571 116.33074571 -39.73315284 116.35797272 -46.875 116.4375 C-60.1551729 116.33222117 -71.32105188 111.92036919 -81.25390625 102.96875 C-90.99630995 92.76418294 -95.92066195 79.48797161 -96.4375 65.5 C-96.09693673 53.10645831 -90.44307775 41.04615473 -82 32 C-81.34 32 -80.68 32 -80 32 C-79.67 31.01 -79.34 30.02 -79 29 C-66.32709532 19.20021431 -53.60850657 16.95599584 -38 18 C-33.25404356 18.64202594 -28.62082334 19.75193196 -24 21 C-24.58174845 15.6913151 -24.58174845 15.6913151 -27 11 C-27.33957563 6.92509248 -27.31332486 5.46998729 -25 2 C-19.76876233 0.46865538 -15.96148616 1.01540554 -11 3 C-7.006869 0.07170393 -5.10126236 -0.46375112 0 0 Z " fill="#D4AE46" transform="translate(208,112)"/>
<path d="M0 0 C14.45775221 -0.76842384 26.32608311 2.76433457 37.1875 12.5 C45.91888132 21.65730236 49.33896559 33.03092385 49.2109375 45.3984375 C48.67504383 54.54832569 45.02723604 61.47936271 40 69 C39.4225 69.886875 38.845 70.77375 38.25 71.6875 C30.03488496 80.13081268 20.156322 85.01150631 8.37939453 85.24194336 C-5.88849107 85.29755879 -15.16643105 81.43487482 -25.8125 71.6875 C-34.89427013 62.15592522 -36.59275683 49.97004263 -36.3125 37.390625 C-36.03727483 31.98245035 -34.72490042 27.68210444 -32 23 C-31.55269531 22.21238281 -31.10539063 21.42476562 -30.64453125 20.61328125 C-27.68667272 15.8156823 -24.10265822 10.67947806 -19 8 C-15.6260229 8.26913047 -14.01257438 9.64565918 -11.75 12.0625 C-11.22921875 12.61035156 -10.7084375 13.15820312 -10.171875 13.72265625 C-9.78515625 14.14417969 -9.3984375 14.56570312 -9 15 C-10.13957867 18.418736 -11.04429724 19.02532307 -13.8125 21.1875 C-20.07286138 26.4942221 -22.49098183 32.49259029 -23.23828125 40.578125 C-23.42625123 47.34504439 -22.38563008 52.13897482 -19 58 C-18.63777344 58.639375 -18.27554688 59.27875 -17.90234375 59.9375 C-14.1527242 65.83520668 -9.04005879 68.81775492 -2.625 71.3125 C7.76136925 73.28232865 15.90050078 71.44056227 24.8125 65.75 C30.30993959 61.53616069 33.15014636 55.54375538 35 49 C35.99899149 39.84645008 35.19716898 31.40229671 29.421875 23.96875 C24.62253577 18.86674974 19.63544171 15.26247433 12.5625 14.4375 C7.90411565 13.59706983 6.18972726 11.23933351 3.4375 7.5 C0 2.40740741 0 2.40740741 0 0 Z " fill="#D4AE46" transform="translate(199,143)"/>
<path d="M0 0 C0.99 0.66 1.98 1.32 3 2 C3 2.66 3 3.32 3 4 C3.66 4 4.32 4 5 4 C5 5.32 5 6.64 5 8 C5.99 7.67 6.98 7.34 8 7 C8.495 7.99 8.495 7.99 9 9 C8.01 9.66 7.02 10.32 6 11 C6.9075 10.9175 7.815 10.835 8.75 10.75 C12 11 12 11 14.3125 12.875 C16 15 16 15 17 17 C18.98 17 20.96 17 23 17 C22.98839844 17.66386719 22.97679687 18.32773438 22.96484375 19.01171875 C22.87813728 24.47994487 22.87813728 24.47994487 23.625 29.875 C24.09759775 32.55305393 23.42230331 33.74104768 22 36 C21.34 36 20.68 36 20 36 C19.505 36.99 19.505 36.99 19 38 C18.05125 37.38125 17.1025 36.7625 16.125 36.125 C8.54904571 31.81978903 -0.48172278 31.61538885 -9 31 C-8.50628906 31.68707031 -8.01257813 32.37414062 -7.50390625 33.08203125 C-6.86324219 33.98308594 -6.22257812 34.88414062 -5.5625 35.8125 C-4.60537109 37.15248047 -4.60537109 37.15248047 -3.62890625 38.51953125 C-2 41 -2 41 -1 44 C-1.99 44.495 -1.99 44.495 -3 45 C-3.4125 44.28714844 -3.825 43.57429688 -4.25 42.83984375 C-10.49384768 32.48453388 -16.98357129 26.89869883 -28 22 C-26.68 21.67 -25.36 21.34 -24 21 C-24.58174845 15.6913151 -24.58174845 15.6913151 -27 11 C-27.33957563 6.92509248 -27.31332486 5.46998729 -25 2 C-19.76876233 0.46865538 -15.96148616 1.01540554 -11 3 C-7.006869 0.07170393 -5.10126236 -0.46375112 0 0 Z " fill="#FAF8F0" transform="translate(208,112)"/>
<path d="M0 0 C2.4375 1.5625 2.4375 1.5625 4 4 C4.6211792 8.19295958 4.36495336 10.33767723 2.3125 14.0625 C1.549375 15.031875 0.78625 16.00125 0 17 C-0.40863281 17.52851563 -0.81726563 18.05703125 -1.23828125 18.6015625 C-5.75109985 24.2740218 -5.75109985 24.2740218 -9 26 C-15.33200964 25.44192457 -19.54185891 21.20272675 -24 17 C-26.76947442 12.92724351 -27.54492203 9.90429825 -27 5 C-25 2 -25 2 -23.01171875 1.41796875 C-18.22949821 0.94376537 -15.49265296 1.20293881 -11 3 C-7.00827493 0.07273495 -5.11644325 -0.63955541 0 0 Z " fill="#D4AE45" transform="translate(208,112)"/>
<path d="M0 0 C4.75 0.875 4.75 0.875 7 2 C7 3.98 7 5.96 7 8 C7.804375 8.144375 8.60875 8.28875 9.4375 8.4375 C12 9 12 9 13 10 C13.28417861 12.69969684 13.32477191 14.41135091 12 16.8125 C8.81666045 18.70260786 5.56143559 18.40912914 2 18 C-1.5 17 -1.5 17 -4 16 C-4.63019694 6.00437637 -4.63019694 6.00437637 -2 1.8125 C-1.34 1.214375 -0.68 0.61625 0 0 Z " fill="#D3AD46" transform="translate(216,123)"/>
<path d="M0 0 C0 0.66 0 1.32 0 2 C0.66 2.33 1.32 2.66 2 3 C-2.29 3.66 -6.58 4.32 -11 5 C-11.33 5.99 -11.66 6.98 -12 8 C-12.9793879 9.02019573 -13.97895449 10.02149805 -15 11 C-15.33 11.66 -15.66 12.32 -16 13 C-18.97 12.505 -18.97 12.505 -22 12 C-16.8285543 5.93692574 -8.24145669 0 0 0 Z " fill="#D4B354" transform="translate(150,131)"/>
<path d="M0 0 C0.33 0 0.66 0 1 0 C1.33 2.31 1.66 4.62 2 7 C2.66 6.67 3.32 6.34 4 6 C4.18451025 16.55808656 4.18451025 16.55808656 3 21 C-0.23518553 17.76481447 0.02857696 14.00362286 -0.09765625 9.5703125 C-0.08605469 8.43335938 -0.07445313 7.29640625 -0.0625 6.125 C-0.05347656 4.97257813 -0.04445313 3.82015625 -0.03515625 2.6328125 C-0.02355469 1.76398438 -0.01195313 0.89515625 0 0 Z " fill="#D9B65D" transform="translate(112,171)"/>
<path d="M0 0 C2.52885025 0.4683056 4.13049855 1.08464771 6.3125 2.5 C9.54384922 4.30354375 12.34441948 4.64160975 16 5 C15.67 5.99 15.34 6.98 15 8 C8.92838975 7.68863537 4.66140596 4.64625533 0 1 C0 0.67 0 0.34 0 0 Z " fill="#F4ECD5" transform="translate(184,207)"/>
<path d="M0 0 C2.32240046 2.85021875 3.93906527 5.46355091 5 9 C4.625 11.3125 4.625 11.3125 4 13 C4 12.34 4 11.68 4 11 C3.01 11 2.02 11 1 11 C-0.98362069 8.08291076 -0.9876191 6.87619096 -0.625 3.25 C-0.41875 2.1775 -0.2125 1.105 0 0 Z " fill="#D6B455" transform="translate(242,165)"/>
<path d="M0 0 C5.94 0 11.88 0 18 0 C15.41073669 2.58926331 13.97294721 2.37398043 10.375 2.625 C9.37210938 2.69976562 8.36921875 2.77453125 7.3359375 2.8515625 C6.17964844 2.92503906 6.17964844 2.92503906 5 3 C5 2.67 5 2.34 5 2 C3.35 1.67 1.7 1.34 0 1 C0 0.67 0 0.34 0 0 Z " fill="#D4B04F" transform="translate(152,130)"/>
<path d="M0 0 C0.33 0 0.66 0 1 0 C1.12375 0.763125 1.2475 1.52625 1.375 2.3125 C1.88102792 5.20267136 1.88102792 5.20267136 4 8 C4 8.66 4 9.32 4 10 C5.32 10.33 6.64 10.66 8 11 C2.25 12.125 2.25 12.125 0 11 C0 7.37 0 3.74 0 0 Z " fill="#D6B553" transform="translate(212,128)"/>
<path d="M0 0 C2 2 2 2 2.125 5.625 C2.08375 6.73875 2.0425 7.8525 2 9 C1.67 8.01 1.34 7.02 1 6 C-1.37625345 4.81608777 -1.37625345 4.81608777 -4 4 C-4.99 3.67 -5.98 3.34 -7 3 C-7 2.34 -7 1.68 -7 1 C-4.03 1.495 -4.03 1.495 -1 2 C-0.67 1.34 -0.34 0.68 0 0 Z " fill="#D7B459" transform="translate(210,114)"/>
<path d="M0 0 C-0.33 0.99 -0.66 1.98 -1 3 C-2.98 3 -4.96 3 -7 3 C-7 2.34 -7 1.68 -7 1 C-10.3 1 -13.6 1 -17 1 C-17 0.67 -17 0.34 -17 0 C-14.9174133 -0.19561869 -12.83388144 -0.38119313 -10.75 -0.5625 C-9.58984375 -0.66691406 -8.4296875 -0.77132812 -7.234375 -0.87890625 C-4.48128523 -0.98198087 -2.580018 -0.86213473 0 0 Z " fill="#F8F3E6" transform="translate(217,228)"/>
<path d="M0 0 C0.67095703 0.58007812 0.67095703 0.58007812 1.35546875 1.171875 C4.8521026 4.18390075 8.37407463 7.14321031 12 10 C7.96618977 10 6.50566363 8.40426438 3.3125 6 C2.31863281 5.2575 1.32476562 4.515 0.30078125 3.75 C-0.45847656 3.1725 -1.21773437 2.595 -2 2 C-1.34 1.34 -0.68 0.68 0 0 Z " fill="#F2E5C2" transform="translate(172,213)"/>
<path d="M0 0 C0.99 0.33 1.98 0.66 3 1 C3 1.66 3 2.32 3 3 C3.598125 3.268125 4.19625 3.53625 4.8125 3.8125 C7.04593283 5.02493496 8.49938199 5.94652273 10 8 C9.57421875 10.1015625 9.57421875 10.1015625 9 12 C8.51789063 11.43410156 8.03578125 10.86820313 7.5390625 10.28515625 C6.90742188 9.55167969 6.27578125 8.81820312 5.625 8.0625 C4.99851563 7.33160156 4.37203125 6.60070312 3.7265625 5.84765625 C2.12252286 3.91619094 2.12252286 3.91619094 0 3 C0 2.01 0 1.02 0 0 Z " fill="#F5ECD1" transform="translate(181,148)"/>
<path d="M0 0 C0.66 0.33 1.32 0.66 2 1 C-0.97 4.96 -0.97 4.96 -4 9 C-4.66 8.01 -5.32 7.02 -6 6 C-4.98545548 3.4636387 -4.3146444 2.20648539 -2 0.6875 C-1.34 0.460625 -0.68 0.23375 0 0 Z " fill="#F8F6EC" transform="translate(230,199)"/>
<path d="M0 0 C2.475 0.495 2.475 0.495 5 1 C6.4375 3.3125 6.4375 3.3125 7 6 C6.34 7.32 5.68 8.64 5 10 C3.35 6.7 1.7 3.4 0 0 Z " fill="#D5B352" transform="translate(191,157)"/>
<path d="M0 0 C0 0.99 0 1.98 0 3 C-6.625 4.25 -6.625 4.25 -10 2 C-6.5980513 -0.09350689 -3.94727588 -0.17942163 0 0 Z " fill="#D6B252" transform="translate(192,113)"/>
<path d="M0 0 C3.9036874 3.46994436 6.36588975 7.55224006 9 12 C8.34 12.66 7.68 13.32 7 14 C5.82508418 12.23462904 4.66031316 10.46250287 3.5 8.6875 C2.8503125 7.70136719 2.200625 6.71523437 1.53125 5.69921875 C0 3 0 3 0 0 Z " fill="#F6ECD3" transform="translate(198,143)"/>
<path d="M0 0 C3.375 -0.125 3.375 -0.125 7 0 C7.66 0.66 8.32 1.32 9 2 C8.67 2.99 8.34 3.98 8 5 C5.03 4.01 2.06 3.02 -1 2 C-0.67 1.34 -0.34 0.68 0 0 Z " fill="#D4B14C" transform="translate(201,112)"/>
<path d="M0 0 C0.66 0.66 1.32 1.32 2 2 C1.01 2.33 0.02 2.66 -1 3 C-1 4.32 -1 5.64 -1 7 C-1.99 7.33 -2.98 7.66 -4 8 C-4 7.34 -4 6.68 -4 6 C-5.32 5.67 -6.64 5.34 -8 5 C-6.20963542 3.99088542 -4.41927083 2.98177083 -2.62890625 1.97265625 C-1.02121854 1.1027487 -1.02121854 1.1027487 0 0 Z " fill="#D5B24F" transform="translate(176,219)"/>
<path d="M0 0 C0.66 0 1.32 0 2 0 C2.33 0.99 2.66 1.98 3 3 C1.6875 4.5 1.6875 4.5 0 6 C-0.99 6 -1.98 6 -3 6 C-3.33 5.01 -3.66 4.02 -4 3 C-3.01 3 -2.02 3 -1 3 C-0.67 2.01 -0.34 1.02 0 0 Z " fill="#F9F5E9" transform="translate(186,201)"/>
<path d="M0 0 C0.66 0.33 1.32 0.66 2 1 C1 4 1 4 -2 6 C-4.1875 5.625 -4.1875 5.625 -6 5 C-5.34 4.67 -4.68 4.34 -4 4 C-4.33 3.34 -4.66 2.68 -5 2 C-2.625 0.9375 -2.625 0.9375 0 0 Z " fill="#F9F5E5" transform="translate(180,224)"/>
<path d="M0 0 C1.32 0.66 2.64 1.32 4 2 C1.69 3.65 -0.62 5.3 -3 7 C-3.33 6.01 -3.66 5.02 -4 4 C-3.34 4 -2.68 4 -2 4 C-2 3.34 -2 2.68 -2 2 C-1.34 1.34 -0.68 0.68 0 0 Z " fill="#D6B254" transform="translate(233,213)"/>
<path d="M0 0 C0.99 1.32 1.98 2.64 3 4 C1.02 4.66 -0.96 5.32 -3 6 C-3.66 5.34 -4.32 4.68 -5 4 C-3.35 3.34 -1.7 2.68 0 2 C0 1.34 0 0.68 0 0 Z " fill="#F8F6EA" transform="translate(191,158)"/>
<path d="M0 0 C0 3 0 3 -1 6 C-3.0625 6.6875 -3.0625 6.6875 -5 7 C-5 6.01 -5 5.02 -5 4 C-2.5 1.8125 -2.5 1.8125 0 0 Z " fill="#FAF5E7" transform="translate(233,217)"/>
<path d="M0 0 C1.485 0.99 1.485 0.99 3 2 C3.1875 4.625 3.1875 4.625 3 7 C2.01 6.67 1.02 6.34 0 6 C-0.38218767 4.34385343 -0.71395102 2.67542976 -1 1 C-0.67 0.67 -0.34 0.34 0 0 Z " fill="#F9F6ED" transform="translate(122,209)"/>
<path d="M0 0 C0.66 0.99 1.32 1.98 2 3 C-0.31 4.98 -2.62 6.96 -5 9 C-3.44455189 5.88910379 -1.80979645 2.96148509 0 0 Z " fill="#FAF3E4" transform="translate(242,206)"/>
<path d="M0 0 C1.485 0.99 1.485 0.99 3 2 C2.6875 3.9375 2.6875 3.9375 2 6 C1.01 6.33 0.02 6.66 -1 7 C-0.67 4.69 -0.34 2.38 0 0 Z " fill="#F9F7EC" transform="translate(178,146)"/>
<path d="M0 0 C0.99 0.33 1.98 0.66 3 1 C2.67 1.99 2.34 2.98 2 4 C-0.64 4 -3.28 4 -6 4 C-2.25 2 -2.25 2 0 2 C0 1.34 0 0.68 0 0 Z " fill="#D9B45D" transform="translate(224,137)"/>
<path d="M0 0 C2.64 0 5.28 0 8 0 C8 0.66 8 1.32 8 2 C5.29120665 3.35439668 2.99066732 3.06501451 0 3 C0 2.01 0 1.02 0 0 Z " fill="#D1AD3C" transform="translate(216,137)"/>
<path d="M0 0 C0.33 0.66 0.66 1.32 1 2 C1.66 2.33 2.32 2.66 3 3 C1.02 3.99 1.02 3.99 -1 5 C-1.99 3.68 -2.98 2.36 -4 1 C-2.68 0.67 -1.36 0.34 0 0 Z " fill="#D5B352" transform="translate(228,161)"/>
<path d="M0 0 C0.66 0 1.32 0 2 0 C2.66 0.66 3.32 1.32 4 2 C4.66 2.33 5.32 2.66 6 3 C6 3.99 6 4.98 6 6 C5.34 6 4.68 6 4 6 C4 5.34 4 4.68 4 4 C1.525 3.01 1.525 3.01 -1 2 C-0.67 1.34 -0.34 0.68 0 0 Z " fill="#D6B355" transform="translate(180,145)"/>
</svg>
